<svg width="123" height="41" viewBox="0 0 123 41" fill="none" xmlns="http://www.w3.org/2000/svg">
<path d="M18.328 41V34.728H0.8V27.616L13.512 0.679998H22.248L9.536 27.616H18.328V17.536H26.056V27.616H29.64V34.728H26.056V41H18.328ZM54.5841 41V8.968L47.0241 13.616V5.216L54.5841 0.679998H62.3681V41H54.5841ZM89.4218 41V34.728H71.8938V27.616L84.6058 0.679998H93.3418L80.6298 27.616H89.4218V17.536H97.1498V27.616H100.734V34.728H97.1498V41H89.4218ZM114.467 41V8.968L106.907 13.616V5.216L114.467 0.679998H122.251V41H114.467Z" fill="#3A499C" style="fill:#3A499C;fill:color(display-p3 0.2275 0.2863 0.6118);fill-opacity:1;"/>
</svg>
