<svg width="167" height="43" viewBox="0 0 167 43" fill="none" xmlns="http://www.w3.org/2000/svg">
<path d="M13.904 42.84C11.8693 42.84 9.956 42.42 8.164 41.58C6.39067 40.74 4.86 39.5733 3.572 38.08C2.284 36.5867 1.36 34.8507 0.8 32.872L8.136 30.912C8.37867 31.864 8.808 32.6853 9.424 33.376C10.0587 34.0667 10.7867 34.608 11.608 35C12.448 35.3733 13.3067 35.56 14.184 35.56C15.3413 35.56 16.396 35.28 17.348 34.72C18.3187 34.16 19.084 33.404 19.644 32.452C20.2227 31.5 20.512 30.4453 20.512 29.288C20.512 28.1307 20.2227 27.076 19.644 26.124C19.084 25.172 18.3187 24.416 17.348 23.856C16.396 23.296 15.3413 23.016 14.184 23.016C12.7653 23.016 11.608 23.2587 10.712 23.744C9.816 24.2107 9.144 24.6587 8.696 25.088L2.256 23.128L3.488 1.68H25.496V8.792H7.688L10.376 6.272L9.536 20.104L8.248 18.536C9.256 17.7147 10.404 17.1173 11.692 16.744C12.98 16.3707 14.184 16.184 15.304 16.184C17.8427 16.184 20.0733 16.7533 21.996 17.892C23.9373 19.012 25.4493 20.5613 26.532 22.54C27.6333 24.5 28.184 26.7493 28.184 29.288C28.184 31.8267 27.5213 34.1227 26.196 36.176C24.8707 38.2107 23.1253 39.8347 20.96 41.048C18.7947 42.2427 16.4427 42.84 13.904 42.84ZM46.8806 42.84C44.8459 42.84 42.9326 42.42 41.1406 41.58C39.3672 40.74 37.8366 39.5733 36.5486 38.08C35.2606 36.5867 34.3366 34.8507 33.7766 32.872L41.1126 30.912C41.3552 31.864 41.7846 32.6853 42.4006 33.376C43.0352 34.0667 43.7632 34.608 44.5846 35C45.4246 35.3733 46.2832 35.56 47.1606 35.56C48.3179 35.56 49.3726 35.28 50.3246 34.72C51.2952 34.16 52.0606 33.404 52.6206 32.452C53.1992 31.5 53.4886 30.4453 53.4886 29.288C53.4886 28.1307 53.1992 27.076 52.6206 26.124C52.0606 25.172 51.2952 24.416 50.3246 23.856C49.3726 23.296 48.3179 23.016 47.1606 23.016C45.7419 23.016 44.5846 23.2587 43.6886 23.744C42.7926 24.2107 42.1206 24.6587 41.6726 25.088L35.2326 23.128L36.4646 1.68H58.4726V8.792H40.6646L43.3526 6.272L42.5126 20.104L41.2246 18.536C42.2326 17.7147 43.3806 17.1173 44.6686 16.744C45.9566 16.3707 47.1606 16.184 48.2806 16.184C50.8192 16.184 53.0499 16.7533 54.9726 17.892C56.9139 19.012 58.4259 20.5613 59.5086 22.54C60.6099 24.5 61.1606 26.7493 61.1606 29.288C61.1606 31.8267 60.4979 34.1227 59.1726 36.176C57.8472 38.2107 56.1019 39.8347 53.9366 41.048C51.7712 42.2427 49.4192 42.84 46.8806 42.84ZM86.0841 42V9.968L78.5241 14.616V6.216L86.0841 1.68H93.8681V42H86.0841ZM120.922 42V35.728H103.394V28.616L116.106 1.68H124.842L112.13 28.616H120.922V18.536H128.65V28.616H132.234V35.728H128.65V42H120.922ZM137.847 41.944V35.336L154.759 20.328C156.028 19.208 156.924 18.1533 157.447 17.164C157.97 16.1747 158.231 15.2507 158.231 14.392C158.231 13.16 157.979 12.068 157.475 11.116C156.971 10.1453 156.262 9.38933 155.347 8.848C154.432 8.288 153.359 8.008 152.127 8.008C150.839 8.008 149.7 8.30666 148.711 8.904C147.74 9.48267 146.984 10.2573 146.443 11.228C145.902 12.18 145.65 13.216 145.687 14.336H137.847C137.847 11.5733 138.454 9.184 139.667 7.168C140.88 5.152 142.57 3.59333 144.735 2.492C146.9 1.39067 149.42 0.839999 152.295 0.839999C154.927 0.839999 157.279 1.41867 159.351 2.576C161.442 3.71466 163.084 5.31066 164.279 7.364C165.474 9.41733 166.071 11.7973 166.071 14.504C166.071 16.5013 165.791 18.1627 165.231 19.488C164.671 20.7947 163.84 22.008 162.739 23.128C161.638 24.2293 160.284 25.48 158.679 26.88L147.759 36.456L147.143 34.776H166.071V41.944H137.847Z" fill="#3A499C" style="fill:#3A499C;fill:color(display-p3 0.2275 0.2863 0.6118);fill-opacity:1;"/>
</svg>
