<svg width="208" height="43" viewBox="0 0 208 43" fill="none" xmlns="http://www.w3.org/2000/svg">
<path d="M14.416 42.84C11.6907 42.84 9.264 42.2893 7.136 41.188C5.02667 40.068 3.36533 38.5373 2.152 36.596C0.957334 34.636 0.36 32.4053 0.36 29.904C0.36 27.776 0.836 25.7693 1.788 23.884C2.75867 21.9987 4.14933 20.4587 5.96 19.264L5.792 21.616C4.42933 20.2907 3.356 18.8907 2.572 17.416C1.80667 15.9413 1.424 14.28 1.424 12.432C1.424 10.0987 1.97467 8.064 3.076 6.328C4.196 4.592 5.72667 3.248 7.668 2.296C9.628 1.32533 11.8773 0.839999 14.416 0.839999C16.9547 0.839999 19.1947 1.32533 21.136 2.296C23.096 3.248 24.6267 4.592 25.728 6.328C26.848 8.064 27.408 10.0987 27.408 12.432C27.408 14.28 27.044 15.9413 26.316 17.416C25.588 18.872 24.4773 20.2907 22.984 21.672V19.32C24.7573 20.44 26.12 21.952 27.072 23.856C28.0427 25.76 28.528 27.776 28.528 29.904C28.528 32.4053 27.9213 34.636 26.708 36.596C25.4947 38.5373 23.824 40.068 21.696 41.188C19.568 42.2893 17.1413 42.84 14.416 42.84ZM14.416 35.672C16.208 35.672 17.664 35.1867 18.784 34.216C19.904 33.2453 20.464 31.808 20.464 29.904C20.464 28.0187 19.904 26.5813 18.784 25.592C17.664 24.584 16.208 24.08 14.416 24.08C12.624 24.08 11.1773 24.584 10.076 25.592C8.97467 26.5813 8.424 28.0187 8.424 29.904C8.424 31.808 8.97467 33.2453 10.076 34.216C11.1773 35.1867 12.624 35.672 14.416 35.672ZM14.416 16.856C15.872 16.856 17.0573 16.5013 17.972 15.792C18.8867 15.064 19.344 13.944 19.344 12.432C19.344 10.92 18.8867 9.8 17.972 9.072C17.0573 8.32533 15.872 7.952 14.416 7.952C12.96 7.952 11.7747 8.32533 10.86 9.072C9.94533 9.8 9.488 10.92 9.488 12.432C9.488 13.944 9.94533 15.064 10.86 15.792C11.7747 16.5013 12.96 16.856 14.416 16.856ZM37.8266 42L51.3786 8.848H34.1306V1.68H59.5546V8.848L46.0586 42H37.8266ZM79.7676 42.84C77.0422 42.84 74.6156 42.2893 72.4876 41.188C70.3782 40.068 68.7169 38.5373 67.5036 36.596C66.3089 34.636 65.7116 32.4053 65.7116 29.904C65.7116 27.776 66.1876 25.7693 67.1396 23.884C68.1102 21.9987 69.5009 20.4587 71.3116 19.264L71.1436 21.616C69.7809 20.2907 68.7076 18.8907 67.9236 17.416C67.1582 15.9413 66.7756 14.28 66.7756 12.432C66.7756 10.0987 67.3262 8.064 68.4276 6.328C69.5476 4.592 71.0782 3.248 73.0196 2.296C74.9796 1.32533 77.2289 0.839999 79.7676 0.839999C82.3062 0.839999 84.5462 1.32533 86.4876 2.296C88.4476 3.248 89.9782 4.592 91.0796 6.328C92.1996 8.064 92.7596 10.0987 92.7596 12.432C92.7596 14.28 92.3956 15.9413 91.6676 17.416C90.9396 18.872 89.8289 20.2907 88.3356 21.672V19.32C90.1089 20.44 91.4716 21.952 92.4236 23.856C93.3942 25.76 93.8796 27.776 93.8796 29.904C93.8796 32.4053 93.2729 34.636 92.0596 36.596C90.8462 38.5373 89.1756 40.068 87.0476 41.188C84.9196 42.2893 82.4929 42.84 79.7676 42.84ZM79.7676 35.672C81.5596 35.672 83.0156 35.1867 84.1356 34.216C85.2556 33.2453 85.8156 31.808 85.8156 29.904C85.8156 28.0187 85.2556 26.5813 84.1356 25.592C83.0156 24.584 81.5596 24.08 79.7676 24.08C77.9756 24.08 76.5289 24.584 75.4276 25.592C74.3262 26.5813 73.7756 28.0187 73.7756 29.904C73.7756 31.808 74.3262 33.2453 75.4276 34.216C76.5289 35.1867 77.9756 35.672 79.7676 35.672ZM79.7676 16.856C81.2236 16.856 82.4089 16.5013 83.3236 15.792C84.2382 15.064 84.6956 13.944 84.6956 12.432C84.6956 10.92 84.2382 9.8 83.3236 9.072C82.4089 8.32533 81.2236 7.952 79.7676 7.952C78.3116 7.952 77.1262 8.32533 76.2116 9.072C75.2969 9.8 74.8396 10.92 74.8396 12.432C74.8396 13.944 75.2969 15.064 76.2116 15.792C77.1262 16.5013 78.3116 16.856 79.7676 16.856ZM125.309 0.895998C127.978 0.895998 130.368 1.52133 132.477 2.772C134.605 4.02266 136.285 5.768 137.517 8.008C138.749 10.2293 139.365 12.8053 139.365 15.736V27.44C139.365 30.6133 138.749 33.3573 137.517 35.672C136.285 37.968 134.549 39.7413 132.309 40.992C130.069 42.224 127.437 42.84 124.413 42.84C122.453 42.84 120.586 42.5507 118.813 41.972C117.058 41.3747 115.434 40.3947 113.941 39.032L119.373 33.6C120.045 34.272 120.82 34.7947 121.697 35.168C122.593 35.5413 123.498 35.728 124.413 35.728C125.869 35.728 127.129 35.392 128.193 34.72C129.276 34.0293 130.106 33.1427 130.685 32.06C131.282 30.9587 131.581 29.792 131.581 28.56V22.568L132.869 23.968C131.73 25.144 130.396 26.0493 128.865 26.684C127.334 27.3 125.757 27.608 124.133 27.608C121.594 27.608 119.354 27.0387 117.413 25.9C115.49 24.7613 113.978 23.2027 112.877 21.224C111.794 19.2453 111.253 16.9867 111.253 14.448C111.253 11.9093 111.897 9.62267 113.185 7.588C114.473 5.53466 116.181 3.91066 118.309 2.716C120.437 1.50266 122.77 0.895998 125.309 0.895998ZM125.309 8.176C124.152 8.176 123.088 8.456 122.117 9.016C121.165 9.576 120.4 10.332 119.821 11.284C119.261 12.236 118.981 13.2907 118.981 14.448C118.981 15.6053 119.261 16.6693 119.821 17.64C120.381 18.592 121.137 19.3573 122.089 19.936C123.041 20.496 124.096 20.776 125.253 20.776C126.41 20.776 127.465 20.496 128.417 19.936C129.388 19.3573 130.153 18.592 130.713 17.64C131.292 16.6693 131.581 15.6053 131.581 14.448C131.581 13.328 131.301 12.292 130.741 11.34C130.181 10.388 129.425 9.62267 128.473 9.044C127.521 8.46533 126.466 8.176 125.309 8.176ZM146.089 41.944V35.336L163.001 20.328C164.27 19.208 165.166 18.1533 165.689 17.164C166.212 16.1747 166.473 15.2507 166.473 14.392C166.473 13.16 166.221 12.068 165.717 11.116C165.213 10.1453 164.504 9.38933 163.589 8.848C162.674 8.288 161.601 8.008 160.369 8.008C159.081 8.008 157.942 8.30666 156.953 8.904C155.982 9.48267 155.226 10.2573 154.685 11.228C154.144 12.18 153.892 13.216 153.929 14.336H146.089C146.089 11.5733 146.696 9.184 147.909 7.168C149.122 5.152 150.812 3.59333 152.977 2.492C155.142 1.39067 157.662 0.839999 160.537 0.839999C163.169 0.839999 165.521 1.41867 167.593 2.576C169.684 3.71466 171.326 5.31066 172.521 7.364C173.716 9.41733 174.313 11.7973 174.313 14.504C174.313 16.5013 174.033 18.1627 173.473 19.488C172.913 20.7947 172.082 22.008 170.981 23.128C169.88 24.2293 168.526 25.48 166.921 26.88L156.001 36.456L155.385 34.776H174.313V41.944H146.089ZM196.32 42V35.728H178.792V28.616L191.504 1.68H200.24L187.528 28.616H196.32V18.536H204.048V28.616H207.632V35.728H204.048V42H196.32Z" fill="#3A499C" style="fill:#3A499C;fill:color(display-p3 0.2275 0.2863 0.6118);fill-opacity:1;"/>
</svg>
